<svg xmlns="http://www.w3.org/2000/svg" width="284.98" height="75.069" viewBox="0 0 284.98 75.069">
  <path id="Path_1" data-name="Path 1" d="M-131.553-9.494q0,1.927,1.292,2.421a10.421,10.421,0,0,0,3.6.494l4.512.047,6.392-.188q2.632,0,3.431-.658a2.526,2.526,0,0,0,.8-2.068,2.479,2.479,0,0,0-.916-2.021,5.8,5.8,0,0,0-3.5-.752H-117.5l-15.7-.329q-4.418,0-6.228-2.233t-1.809-6.839a13.077,13.077,0,0,1,1.152-6.063A6.146,6.146,0,0,1-135.9-30.62a37.425,37.425,0,0,1,7.943-.917q4.912-.141,6.6-.141l6.674.094a26.465,26.465,0,0,1,6.439.634,5.354,5.354,0,0,1,3.454,2.326,10.127,10.127,0,0,1,1.292,3.055,19.517,19.517,0,0,1,.282,3.76h-9.353a2.588,2.588,0,0,0-.964-2.3,4.752,4.752,0,0,0-2.7-.658l-4.606-.047-7.285.235a5.175,5.175,0,0,0-2.468.54,1.889,1.889,0,0,0-1.01,1.81,2.235,2.235,0,0,0,1.2,2.279,8.1,8.1,0,0,0,3.267.541h.987l6.392.094,6.3.047q6.063,0,8.813,1.9t2.75,7.638q0,5.546-2.467,7.614t-8.155,2.068l-12.22.329L-131.13.141q-5.076,0-7.473-1.645T-141-8.131v-1.88h9.4Zm77.409-3.948v1.833q0,7.332-3.83,9.658T-69.795.376L-77.6.329a51.7,51.7,0,0,1-9.494-.658A8.541,8.541,0,0,1-92.4-3.666q-2.021-2.679-2.021-8.413V-31.3h9.541v16.4q0,4.7,1.128,6.11t5.687,1.41l4.277.047,3.948-.047q3.9,0,5.005-1.222t1.1-4.935V-31.3h9.588Zm37.929-17.907q4.7,0,7.191,1.786t2.491,6.3a13.821,13.821,0,0,1-.353,3.36,4.17,4.17,0,0,1-1.269,2.186,5.594,5.594,0,0,1-1.692,1.081q-.776.282-2.185.658,3.807.611,5.264,1.927t1.457,5.029q0,5.217-2.514,7.121T-15.745,0H-45.966V-31.349Zm.047,9.494a2.216,2.216,0,0,0-.917-2.115,5.62,5.62,0,0,0-2.7-.517H-36.425v5.452h16.45a6.175,6.175,0,0,0,2.844-.517Q-16.168-20.069-16.168-21.855Zm1.269,11.7a2.46,2.46,0,0,0-.823-1.974,5.2,5.2,0,0,0-3.219-.705H-36.425V-7.1h17.343a10.918,10.918,0,0,0,2.914-.353Q-14.9-7.8-14.9-10.152ZM10.34,0H-.282L17.2-31.349H30.08L47.188,0H36.66L33.7-5.687H13.442Zm6.439-12.173H30.221L23.5-24.581ZM82.015-31.349q5.64,0,8.061,2.185T92.5-21.432a23.865,23.865,0,0,1-.235,3.619,6.717,6.717,0,0,1-.94,2.608,4.849,4.849,0,0,1-1.645,1.645,25.559,25.559,0,0,1-3.948,1.528,9.75,9.75,0,0,1,4.841,1.668Q92.12-9.118,92.12-6.016V0H82.438V-3.008a13.492,13.492,0,0,0-.4-3.666q-.4-1.363-3.736-1.363H62.369V0H52.828V-31.349Zm-3.995,15.7q3.243,0,4.042-.8t.8-3.572a6.5,6.5,0,0,0-.306-2.3,1.809,1.809,0,0,0-1.269-1.034,8.089,8.089,0,0,0-1.575-.329q-.611-.047-1.457-.047H62.369v8.084H78.02Zm62.557,2.209v1.833q0,7.332-3.831,9.658T124.926.376l-7.8-.047a51.7,51.7,0,0,1-9.494-.658,8.541,8.541,0,0,1-5.311-3.337Q100.3-6.345,100.3-12.079V-31.3h9.541v16.4q0,4.7,1.128,6.11t5.687,1.41l4.277.047,3.948-.047q3.9,0,5.005-1.222t1.1-4.935V-31.3h9.588Zm-261.348,31.09h-9.141V43h-3.73V17.648h-9.121V14.563h21.992Zm20.293,12.207H-112.8V39.934h14.316V43h-18.066V14.563h17.871v3.086H-112.8v9.141h12.324Zm22.363,5.723H-90.029L-92.705,43h-3.867l10.859-28.437h3.281L-71.553,43H-75.4ZM-88.9,32.492h9.668l-4.844-13.3Zm26.016-17.93,9.3,23.2,9.3-23.2h4.863V43h-3.75V31.926l.352-11.953L-52.158,43h-2.871l-9.316-22.969.371,11.895V43h-3.75V14.563ZM-22.9,43V14.563h9.3q4.629,0,6.963,1.914a6.9,6.9,0,0,1,2.334,5.664,5.776,5.776,0,0,1-1.133,3.525,7.344,7.344,0,0,1-3.086,2.373A6.6,6.6,0,0,1-4.883,30.49,7.035,7.035,0,0,1-3.545,34.8a7.606,7.606,0,0,1-2.48,6.016Q-8.506,43-13.037,43Zm3.75-13.3V39.934h6.191a5.962,5.962,0,0,0,4.131-1.357,4.767,4.767,0,0,0,1.514-3.74q0-5.137-5.586-5.137Zm0-3.008h5.664a5.945,5.945,0,0,0,3.936-1.23,4.121,4.121,0,0,0,1.475-3.34,4.052,4.052,0,0,0-1.367-3.408,6.725,6.725,0,0,0-4.16-1.064H-19.15Zm37.227,3.164H5.752V39.934H20.068V43H2V14.563H19.873v3.086H5.752v9.141H18.076Zm10.43,10.078H41.982V43H24.736V14.563h3.77Zm33.828-4.355H50.42L47.744,43H43.877L54.736,14.563h3.281L68.9,43H65.049ZM51.553,32.492h9.668l-4.844-13.3Zm31.6-1h-6.68V43h-3.77V14.563h9.414q4.8,0,7.393,2.188A7.87,7.87,0,0,1,92.1,23.117a7.656,7.656,0,0,1-1.436,4.629A8.569,8.569,0,0,1,86.67,30.7l6.68,12.07V43H89.326Zm-6.68-3.066h5.762a6.506,6.506,0,0,0,4.443-1.445,4.883,4.883,0,0,0,1.65-3.867,5.142,5.142,0,0,0-1.572-4.043,6.666,6.666,0,0,0-4.541-1.426H76.475Zm40.9-13.867V33.9a9.07,9.07,0,0,1-2.529,6.582,10.192,10.192,0,0,1-6.807,2.871l-1,.039a10.644,10.644,0,0,1-7.441-2.52,9.011,9.011,0,0,1-2.812-6.934V14.563H100.5V33.82a6.5,6.5,0,0,0,1.7,4.795,7.778,7.778,0,0,0,9.717.01A6.492,6.492,0,0,0,113.6,33.84V14.563Zm14.3,15.762a17.633,17.633,0,0,1-7.021-3.408,6.512,6.512,0,0,1-2.2-4.99,6.879,6.879,0,0,1,2.686-5.557,10.673,10.673,0,0,1,6.982-2.2,11.65,11.65,0,0,1,5.225,1.133A8.591,8.591,0,0,1,140.9,18.43a7.991,7.991,0,0,1,1.26,4.355h-3.77a5.172,5.172,0,0,0-1.641-4.053,6.687,6.687,0,0,0-4.629-1.475,6.84,6.84,0,0,0-4.326,1.221,4.069,4.069,0,0,0-1.553,3.389,3.661,3.661,0,0,0,1.475,2.939,14.476,14.476,0,0,0,5.02,2.2,23.245,23.245,0,0,1,5.547,2.2A8.417,8.417,0,0,1,141.25,32a7.153,7.153,0,0,1,.967,3.77,6.644,6.644,0,0,1-2.7,5.537,11.492,11.492,0,0,1-7.207,2.08,13.367,13.367,0,0,1-5.469-1.123,9.2,9.2,0,0,1-3.916-3.076,7.507,7.507,0,0,1-1.377-4.434h3.77a4.9,4.9,0,0,0,1.9,4.072,8.018,8.018,0,0,0,5.088,1.494,7.371,7.371,0,0,0,4.551-1.211,3.933,3.933,0,0,0,1.582-3.3,3.861,3.861,0,0,0-1.465-3.232A16.888,16.888,0,0,0,131.67,30.324Z" transform="translate(142.764 31.678)"/>
</svg>
